# xmcd CD database file
#
# Track frame offsets:
#	150
#	13490
#	23364
#	34939
#	47221
#	61647
#	73819
#	88484
#	102761
#	115597
#	128251
#	141492
#	154372
#	174800
#	187682
#	205350
#	219943
#	241602
#	255221
#	268034
#	283399
#	305908
#
# Disc length: 4270 seconds
#
# Revision: 3
# Processed by: cddbd v1.5.2PL0 Copyright (c) Steve Scherf et al.
# Submitted via: CDex 1.51
#
DISCID=3410ac16
DTITLE=Merle Haggard - The Definitive Collection
DYEAR=2007
DGENRE=Country
TTITLE0=The Fugitive
TTITLE1=Mama Tried
TTITLE2=Workin' Man Blues
TTITLE3=Okie From Muskogee
TTITLE4=Daddy Frank (The Guitar Man)
TTITLE5=If We Make It Through December
TTITLE6=If We're Not Back In Love By Monday
TTITLE7=Ramblin' Fever
TTITLE8=I'm Always On A Mountain When I Fall
TTITLE9=It's Been A Great Afternoon
TTITLE10=The Way I Am
TTITLE11=Misery And Gin
TTITLE12=I Think I'll Just Stay Here And Drink
TTITLE13=Rainbow Stew [live]
TTITLE14=Sing Me Back Home [live]
TTITLE15=Yesterday's Wine [with George Jones]
TTITLE16=Pancho And Lefty [with Willie Nelson]
TTITLE17=That's The Way Love Goes
TTITLE18=Let's Chase Each Other Around The Room
TTITLE19=Twinkle, Twinkle Lucky Star
TTITLE20=If I Could Only Fly
TTITLE21=Always Late (With Your Kisses)
EXTD=YEAR: 2007
EXTT0=
EXTT1=
EXTT2=
EXTT3=
EXTT4=
EXTT5=
EXTT6=
EXTT7=
EXTT8=
EXTT9=
EXTT10=
EXTT11=
EXTT12=
EXTT13=
EXTT14=
EXTT15=
EXTT16=
EXTT17=
EXTT18=
EXTT19=
EXTT20=
EXTT21=
PLAYORDER=
